# xmcd
#
# Track frame offsets:
#	150
#	12422
#	25466
#	39574
#	53544
#	66405
#	81881
#	93555
#	107305
#	118383
#	131371
#	145999
#	159260
#	171612
#	184118
#	198235
#	209358
#	222500
#	236865
#	249341
#	262405
#	276270
#	291242
#	304877
#	318181
#	331470
#
# Disc length: 4571 seconds
#
# Revision: 0
# Processed by: cddbd v1.5.2PL0 Copyright (c) Steve Scherf et al.
# Submitted via: dBpowerAMP V4.0
#
DISCID=9411d91a
DTITLE=Al Hibbler - 26 Best of Al Hibbler
DYEAR=1900
DGENRE=R&B
TTITLE0=After The Lights Go Down Low (Original)
TTITLE1=Unchained Melody
TTITLE2=He
TTITLE3=Fat And Forty
TTITLE4=Don't Get Around Much Anymore
TTITLE5=A Tree In The Meadow
TTITLE6=September In The Rain
TTITLE7=I Don't Stand A Ghost Of A Chance
TTITLE8=Honeysuckle Rose
TTITLE9=There Are Such Things
TTITLE10=Sweet Slumber
TTITLE11=There Is No Greater Love
TTITLE12=Don't Take Your Love From Me
TTITLE13=Lover Come Back To Me
TTITLE14=Danny Boy
TTITLE15=Will You Be Mine
TTITLE16=What Will I Tell My Heart
TTITLE17=Just A Kid Named Joe
TTITLE18=Poor Butterfly
TTITLE19=Do Nothing Till You Hear It From Me
TTITLE20=I Got It Bad And That Ain't Good
TTITLE21=All Or Nothing At All
TTITLE22=It Don't Mean A Thing
TTITLE23=The Very Thought Of You
TTITLE24=11th Hour Melody
TTITLE25=After The Lights Go Down Low
EXTD=
EXTT0=
EXTT1=
EXTT2=
EXTT3=
EXTT4=
EXTT5=
EXTT6=
EXTT7=
EXTT8=
EXTT9=
EXTT10=
EXTT11=
EXTT12=
EXTT13=
EXTT14=
EXTT15=
EXTT16=
EXTT17=
EXTT18=
EXTT19=
EXTT20=
EXTT21=
EXTT22=
EXTT23=
EXTT24=
EXTT25=
PLAYORDER=
